<mxfile host="app.diagrams.net" modified="2024-02-18T14:12:54.060Z" agent="Mozilla/5.0 (Windows NT 10.0; Win64; x64) AppleWebKit/537.36 (KHTML, like Gecko) Chrome/121.0.0.0 Safari/537.36 OPR/107.0.0.0" etag="0b_2hldq_vMBtVdJ7Clt" version="23.1.2" type="github">
  <diagram name="Page-1" id="Xl1VuzCZaCD5DjxerAms">
    <mxGraphModel dx="1172" dy="619" grid="0" gridSize="10" guides="1" tooltips="1" connect="1" arrows="1" fold="1" page="1" pageScale="1" pageWidth="850" pageHeight="1100" math="0" shadow="0">
      <root>
        <mxCell id="0" />
        <mxCell id="1" parent="0" />
        <mxCell id="tKdW5rm4YRsendymwAid-1" value="Ticket_Description&lt;br&gt;" style="swimlane;fontStyle=0;childLayout=stackLayout;horizontal=1;startSize=26;fillColor=none;horizontalStack=0;resizeParent=1;resizeParentMax=0;resizeLast=0;collapsible=1;marginBottom=0;whiteSpace=wrap;html=1;" vertex="1" parent="1">
          <mxGeometry x="103" y="107" width="141" height="104" as="geometry" />
        </mxCell>
        <mxCell id="tKdW5rm4YRsendymwAid-2" value="+ ID: Long&lt;br&gt;" style="text;strokeColor=none;fillColor=none;align=left;verticalAlign=top;spacingLeft=4;spacingRight=4;overflow=hidden;rotatable=0;points=[[0,0.5],[1,0.5]];portConstraint=eastwest;whiteSpace=wrap;html=1;" vertex="1" parent="tKdW5rm4YRsendymwAid-1">
          <mxGeometry y="26" width="141" height="26" as="geometry" />
        </mxCell>
        <mxCell id="tKdW5rm4YRsendymwAid-3" value="Ticket_ID: long" style="text;strokeColor=none;fillColor=none;align=left;verticalAlign=top;spacingLeft=4;spacingRight=4;overflow=hidden;rotatable=0;points=[[0,0.5],[1,0.5]];portConstraint=eastwest;whiteSpace=wrap;html=1;" vertex="1" parent="tKdW5rm4YRsendymwAid-1">
          <mxGeometry y="52" width="141" height="26" as="geometry" />
        </mxCell>
        <mxCell id="tKdW5rm4YRsendymwAid-4" value="Descrition: String&lt;br&gt;" style="text;strokeColor=none;fillColor=none;align=left;verticalAlign=top;spacingLeft=4;spacingRight=4;overflow=hidden;rotatable=0;points=[[0,0.5],[1,0.5]];portConstraint=eastwest;whiteSpace=wrap;html=1;" vertex="1" parent="tKdW5rm4YRsendymwAid-1">
          <mxGeometry y="78" width="141" height="26" as="geometry" />
        </mxCell>
        <mxCell id="tKdW5rm4YRsendymwAid-5" value="Ticket" style="swimlane;fontStyle=0;childLayout=stackLayout;horizontal=1;startSize=26;fillColor=none;horizontalStack=0;resizeParent=1;resizeParentMax=0;resizeLast=0;collapsible=1;marginBottom=0;whiteSpace=wrap;html=1;" vertex="1" parent="1">
          <mxGeometry x="413" y="107" width="140" height="104" as="geometry" />
        </mxCell>
        <mxCell id="tKdW5rm4YRsendymwAid-6" value="+ ID: Long&lt;br&gt;" style="text;strokeColor=none;fillColor=none;align=left;verticalAlign=top;spacingLeft=4;spacingRight=4;overflow=hidden;rotatable=0;points=[[0,0.5],[1,0.5]];portConstraint=eastwest;whiteSpace=wrap;html=1;" vertex="1" parent="tKdW5rm4YRsendymwAid-5">
          <mxGeometry y="26" width="140" height="26" as="geometry" />
        </mxCell>
        <mxCell id="tKdW5rm4YRsendymwAid-7" value="Project_id: int" style="text;strokeColor=none;fillColor=none;align=left;verticalAlign=top;spacingLeft=4;spacingRight=4;overflow=hidden;rotatable=0;points=[[0,0.5],[1,0.5]];portConstraint=eastwest;whiteSpace=wrap;html=1;" vertex="1" parent="tKdW5rm4YRsendymwAid-5">
          <mxGeometry y="52" width="140" height="26" as="geometry" />
        </mxCell>
        <mxCell id="tKdW5rm4YRsendymwAid-8" value="Descrition: String&lt;br&gt;" style="text;strokeColor=none;fillColor=none;align=left;verticalAlign=top;spacingLeft=4;spacingRight=4;overflow=hidden;rotatable=0;points=[[0,0.5],[1,0.5]];portConstraint=eastwest;whiteSpace=wrap;html=1;" vertex="1" parent="tKdW5rm4YRsendymwAid-5">
          <mxGeometry y="78" width="140" height="26" as="geometry" />
        </mxCell>
        <mxCell id="tKdW5rm4YRsendymwAid-9" value="Project" style="swimlane;fontStyle=0;childLayout=stackLayout;horizontal=1;startSize=26;fillColor=none;horizontalStack=0;resizeParent=1;resizeParentMax=0;resizeLast=0;collapsible=1;marginBottom=0;whiteSpace=wrap;html=1;" vertex="1" parent="1">
          <mxGeometry x="655" y="107" width="140" height="104" as="geometry" />
        </mxCell>
        <mxCell id="tKdW5rm4YRsendymwAid-10" value="+ ID: int" style="text;strokeColor=none;fillColor=none;align=left;verticalAlign=top;spacingLeft=4;spacingRight=4;overflow=hidden;rotatable=0;points=[[0,0.5],[1,0.5]];portConstraint=eastwest;whiteSpace=wrap;html=1;" vertex="1" parent="tKdW5rm4YRsendymwAid-9">
          <mxGeometry y="26" width="140" height="26" as="geometry" />
        </mxCell>
        <mxCell id="tKdW5rm4YRsendymwAid-11" value="organisation_id: int" style="text;strokeColor=none;fillColor=none;align=left;verticalAlign=top;spacingLeft=4;spacingRight=4;overflow=hidden;rotatable=0;points=[[0,0.5],[1,0.5]];portConstraint=eastwest;whiteSpace=wrap;html=1;" vertex="1" parent="tKdW5rm4YRsendymwAid-9">
          <mxGeometry y="52" width="140" height="26" as="geometry" />
        </mxCell>
        <mxCell id="tKdW5rm4YRsendymwAid-12" value="Descrition: String&lt;br&gt;" style="text;strokeColor=none;fillColor=none;align=left;verticalAlign=top;spacingLeft=4;spacingRight=4;overflow=hidden;rotatable=0;points=[[0,0.5],[1,0.5]];portConstraint=eastwest;whiteSpace=wrap;html=1;" vertex="1" parent="tKdW5rm4YRsendymwAid-9">
          <mxGeometry y="78" width="140" height="26" as="geometry" />
        </mxCell>
        <mxCell id="tKdW5rm4YRsendymwAid-13" value="Organisation" style="swimlane;fontStyle=0;childLayout=stackLayout;horizontal=1;startSize=26;fillColor=none;horizontalStack=0;resizeParent=1;resizeParentMax=0;resizeLast=0;collapsible=1;marginBottom=0;whiteSpace=wrap;html=1;" vertex="1" parent="1">
          <mxGeometry x="652" y="319" width="140" height="52" as="geometry" />
        </mxCell>
        <mxCell id="tKdW5rm4YRsendymwAid-14" value="+ ID: int" style="text;strokeColor=none;fillColor=none;align=left;verticalAlign=top;spacingLeft=4;spacingRight=4;overflow=hidden;rotatable=0;points=[[0,0.5],[1,0.5]];portConstraint=eastwest;whiteSpace=wrap;html=1;" vertex="1" parent="tKdW5rm4YRsendymwAid-13">
          <mxGeometry y="26" width="140" height="26" as="geometry" />
        </mxCell>
        <mxCell id="tKdW5rm4YRsendymwAid-18" value="" style="endArrow=none;html=1;rounded=0;exitX=1;exitY=0.5;exitDx=0;exitDy=0;entryX=0;entryY=0.5;entryDx=0;entryDy=0;" edge="1" parent="1" source="tKdW5rm4YRsendymwAid-3" target="tKdW5rm4YRsendymwAid-7">
          <mxGeometry width="50" height="50" relative="1" as="geometry">
            <mxPoint x="452" y="270" as="sourcePoint" />
            <mxPoint x="502" y="220" as="targetPoint" />
          </mxGeometry>
        </mxCell>
        <mxCell id="tKdW5rm4YRsendymwAid-19" value="" style="endArrow=none;html=1;rounded=0;exitX=1.026;exitY=0.167;exitDx=0;exitDy=0;entryX=-0.003;entryY=0.131;entryDx=0;entryDy=0;exitPerimeter=0;entryPerimeter=0;" edge="1" parent="1" source="tKdW5rm4YRsendymwAid-7" target="tKdW5rm4YRsendymwAid-11">
          <mxGeometry width="50" height="50" relative="1" as="geometry">
            <mxPoint x="486" y="282" as="sourcePoint" />
            <mxPoint x="655" y="282" as="targetPoint" />
          </mxGeometry>
        </mxCell>
        <mxCell id="tKdW5rm4YRsendymwAid-20" value="1" style="text;html=1;strokeColor=none;fillColor=none;align=center;verticalAlign=middle;whiteSpace=wrap;rounded=0;" vertex="1" parent="1">
          <mxGeometry x="229" y="149" width="60" height="30" as="geometry" />
        </mxCell>
        <mxCell id="tKdW5rm4YRsendymwAid-21" value="1" style="text;html=1;strokeColor=none;fillColor=none;align=center;verticalAlign=middle;whiteSpace=wrap;rounded=0;" vertex="1" parent="1">
          <mxGeometry x="361" y="149" width="60" height="30" as="geometry" />
        </mxCell>
        <mxCell id="tKdW5rm4YRsendymwAid-23" value="1" style="text;html=1;strokeColor=none;fillColor=none;align=center;verticalAlign=middle;whiteSpace=wrap;rounded=0;" vertex="1" parent="1">
          <mxGeometry x="604" y="133" width="60" height="30" as="geometry" />
        </mxCell>
        <mxCell id="tKdW5rm4YRsendymwAid-25" value="*" style="text;html=1;strokeColor=none;fillColor=none;align=center;verticalAlign=middle;whiteSpace=wrap;rounded=0;" vertex="1" parent="1">
          <mxGeometry x="540" y="134" width="60" height="29" as="geometry" />
        </mxCell>
        <mxCell id="tKdW5rm4YRsendymwAid-26" value="" style="endArrow=none;html=1;rounded=0;exitX=0.5;exitY=0;exitDx=0;exitDy=0;entryX=0.468;entryY=1.05;entryDx=0;entryDy=0;entryPerimeter=0;" edge="1" parent="1" source="tKdW5rm4YRsendymwAid-13" target="tKdW5rm4YRsendymwAid-12">
          <mxGeometry width="50" height="50" relative="1" as="geometry">
            <mxPoint x="444" y="321" as="sourcePoint" />
            <mxPoint x="613" y="321" as="targetPoint" />
          </mxGeometry>
        </mxCell>
        <mxCell id="tKdW5rm4YRsendymwAid-27" value="1" style="text;html=1;strokeColor=none;fillColor=none;align=center;verticalAlign=middle;whiteSpace=wrap;rounded=0;" vertex="1" parent="1">
          <mxGeometry x="664" y="292" width="60" height="30" as="geometry" />
        </mxCell>
        <mxCell id="tKdW5rm4YRsendymwAid-28" value="1..*" style="text;html=1;strokeColor=none;fillColor=none;align=center;verticalAlign=middle;whiteSpace=wrap;rounded=0;" vertex="1" parent="1">
          <mxGeometry x="715" y="215" width="60" height="30" as="geometry" />
        </mxCell>
        <mxCell id="tKdW5rm4YRsendymwAid-29" value="" style="endArrow=none;html=1;rounded=0;entryX=0.462;entryY=1.014;entryDx=0;entryDy=0;entryPerimeter=0;exitX=0.5;exitY=0;exitDx=0;exitDy=0;" edge="1" parent="1" source="tKdW5rm4YRsendymwAid-35" target="tKdW5rm4YRsendymwAid-14">
          <mxGeometry width="50" height="50" relative="1" as="geometry">
            <mxPoint x="715.8199999999999" y="453.05999999999995" as="sourcePoint" />
            <mxPoint x="502" y="338" as="targetPoint" />
          </mxGeometry>
        </mxCell>
        <mxCell id="tKdW5rm4YRsendymwAid-31" value="&amp;lt;ENUM&amp;gt; Role&lt;br&gt;" style="swimlane;fontStyle=0;childLayout=stackLayout;horizontal=1;startSize=26;fillColor=none;horizontalStack=0;resizeParent=1;resizeParentMax=0;resizeLast=0;collapsible=1;marginBottom=0;whiteSpace=wrap;html=1;" vertex="1" parent="1">
          <mxGeometry x="431" y="470" width="140" height="78" as="geometry" />
        </mxCell>
        <mxCell id="tKdW5rm4YRsendymwAid-32" value="+ ID: int" style="text;strokeColor=none;fillColor=none;align=left;verticalAlign=top;spacingLeft=4;spacingRight=4;overflow=hidden;rotatable=0;points=[[0,0.5],[1,0.5]];portConstraint=eastwest;whiteSpace=wrap;html=1;" vertex="1" parent="tKdW5rm4YRsendymwAid-31">
          <mxGeometry y="26" width="140" height="26" as="geometry" />
        </mxCell>
        <mxCell id="tKdW5rm4YRsendymwAid-33" value="Role_Name:string" style="text;strokeColor=none;fillColor=none;align=left;verticalAlign=top;spacingLeft=4;spacingRight=4;overflow=hidden;rotatable=0;points=[[0,0.5],[1,0.5]];portConstraint=eastwest;whiteSpace=wrap;html=1;" vertex="1" parent="tKdW5rm4YRsendymwAid-31">
          <mxGeometry y="52" width="140" height="26" as="geometry" />
        </mxCell>
        <mxCell id="tKdW5rm4YRsendymwAid-35" value="User" style="swimlane;fontStyle=0;childLayout=stackLayout;horizontal=1;startSize=26;fillColor=none;horizontalStack=0;resizeParent=1;resizeParentMax=0;resizeLast=0;collapsible=1;marginBottom=0;whiteSpace=wrap;html=1;" vertex="1" parent="1">
          <mxGeometry x="649" y="449" width="140" height="130" as="geometry" />
        </mxCell>
        <mxCell id="tKdW5rm4YRsendymwAid-36" value="+ ID: int" style="text;strokeColor=none;fillColor=none;align=left;verticalAlign=top;spacingLeft=4;spacingRight=4;overflow=hidden;rotatable=0;points=[[0,0.5],[1,0.5]];portConstraint=eastwest;whiteSpace=wrap;html=1;" vertex="1" parent="tKdW5rm4YRsendymwAid-35">
          <mxGeometry y="26" width="140" height="26" as="geometry" />
        </mxCell>
        <mxCell id="tKdW5rm4YRsendymwAid-37" value="Login:string" style="text;strokeColor=none;fillColor=none;align=left;verticalAlign=top;spacingLeft=4;spacingRight=4;overflow=hidden;rotatable=0;points=[[0,0.5],[1,0.5]];portConstraint=eastwest;whiteSpace=wrap;html=1;" vertex="1" parent="tKdW5rm4YRsendymwAid-35">
          <mxGeometry y="52" width="140" height="26" as="geometry" />
        </mxCell>
        <mxCell id="tKdW5rm4YRsendymwAid-38" value="Password: String" style="text;strokeColor=none;fillColor=none;align=left;verticalAlign=top;spacingLeft=4;spacingRight=4;overflow=hidden;rotatable=0;points=[[0,0.5],[1,0.5]];portConstraint=eastwest;whiteSpace=wrap;html=1;" vertex="1" parent="tKdW5rm4YRsendymwAid-35">
          <mxGeometry y="78" width="140" height="26" as="geometry" />
        </mxCell>
        <mxCell id="tKdW5rm4YRsendymwAid-40" value="Role: Role" style="text;strokeColor=none;fillColor=none;align=left;verticalAlign=top;spacingLeft=4;spacingRight=4;overflow=hidden;rotatable=0;points=[[0,0.5],[1,0.5]];portConstraint=eastwest;whiteSpace=wrap;html=1;" vertex="1" parent="tKdW5rm4YRsendymwAid-35">
          <mxGeometry y="104" width="140" height="26" as="geometry" />
        </mxCell>
        <mxCell id="tKdW5rm4YRsendymwAid-41" style="edgeStyle=orthogonalEdgeStyle;rounded=0;orthogonalLoop=1;jettySize=auto;html=1;entryX=1.026;entryY=-0.109;entryDx=0;entryDy=0;entryPerimeter=0;" edge="1" parent="1" source="tKdW5rm4YRsendymwAid-37" target="tKdW5rm4YRsendymwAid-33">
          <mxGeometry relative="1" as="geometry">
            <mxPoint x="627.2941463694854" y="514" as="targetPoint" />
            <Array as="points">
              <mxPoint x="617" y="518" />
              <mxPoint x="617" y="518" />
            </Array>
          </mxGeometry>
        </mxCell>
        <mxCell id="tKdW5rm4YRsendymwAid-42" value="1" style="text;html=1;strokeColor=none;fillColor=none;align=center;verticalAlign=middle;whiteSpace=wrap;rounded=0;" vertex="1" parent="1">
          <mxGeometry x="718" y="371" width="60" height="30" as="geometry" />
        </mxCell>
        <mxCell id="tKdW5rm4YRsendymwAid-43" value="1..*" style="text;html=1;strokeColor=none;fillColor=none;align=center;verticalAlign=middle;whiteSpace=wrap;rounded=0;" vertex="1" parent="1">
          <mxGeometry x="661" y="419" width="60" height="30" as="geometry" />
        </mxCell>
        <mxCell id="tKdW5rm4YRsendymwAid-44" value="1..*" style="text;html=1;strokeColor=none;fillColor=none;align=center;verticalAlign=middle;whiteSpace=wrap;rounded=0;" vertex="1" parent="1">
          <mxGeometry x="555" y="486" width="60" height="30" as="geometry" />
        </mxCell>
        <mxCell id="tKdW5rm4YRsendymwAid-45" value="1" style="text;html=1;strokeColor=none;fillColor=none;align=center;verticalAlign=middle;whiteSpace=wrap;rounded=0;" vertex="1" parent="1">
          <mxGeometry x="609" y="516" width="60" height="30" as="geometry" />
        </mxCell>
      </root>
    </mxGraphModel>
  </diagram>
</mxfile>
